<?xml version="1.0" standalone="no"?>
<!DOCTYPE svg PUBLIC "-//W3C//DTD SVG 20010904//EN"
 "http://www.w3.org/TR/2001/REC-SVG-20010904/DTD/svg10.dtd">
<svg version="1.0" xmlns="http://www.w3.org/2000/svg"
 width="447.000000pt" height="517.000000pt" viewBox="0 0 447.000000 517.000000"
 preserveAspectRatio="xMidYMid meet">
<metadata>
Created by potrace 1.16, written by Peter Selinger 2001-2019
</metadata>
<g transform="translate(0.000000,517.000000) scale(0.100000,-0.100000)"
fill="#000000" stroke="none">
<path d="M2138 4968 c-16 -5 -28 -15 -28 -21 -1 -7 -1 -83 0 -169 l1 -158 -68
0 -68 0 0 72 0 73 -75 0 -75 0 1 -72 1 -73 -69 0 -68 0 0 75 0 75 -76 0 -76 0
4 -200 c2 -130 7 -203 14 -210 9 -9 29 -3 79 20 92 43 247 102 253 96 6 -7 5
-84 -2 -95 -3 -5 -76 -35 -161 -67 -85 -33 -155 -62 -155 -65 0 -10 63 -38
200 -89 137 -51 126 -40 121 -127 l-1 -23 -72 27 c-40 15 -82 32 -93 39 -26
17 -153 64 -171 64 -12 0 -14 -35 -12 -207 l3 -208 73 -3 72 -3 0 76 0 75 69
0 68 0 -2 -65 c-1 -35 1 -69 4 -74 8 -12 123 -17 139 -7 7 4 12 35 12 77 l0
69 65 0 66 0 -2 -312 c-1 -172 -4 -337 -6 -365 l-5 -52 -76 59 c-43 33 -126
101 -187 150 -60 49 -155 126 -210 170 -55 44 -138 112 -185 150 -47 39 -107
89 -135 111 -27 22 -90 73 -140 114 -49 40 -126 103 -170 139 -124 101 -285
207 -308 204 -22 -3 -107 -100 -107 -121 0 -29 45 -80 132 -150 52 -42 100
-83 107 -91 16 -19 2 -47 -40 -76 l-30 -22 -44 31 c-24 17 -52 31 -63 31 -19
0 -92 -71 -92 -89 0 -5 25 -32 56 -60 l56 -50 -43 -46 -44 -46 -53 41 c-59 44
-64 43 -108 -9 -25 -29 -44 -99 -25 -86 4 2 28 -14 52 -36 24 -22 72 -61 107
-87 34 -25 62 -49 62 -54 0 -4 5 -8 11 -8 6 0 24 -9 41 -21 16 -12 31 -20 32
-18 2 2 27 77 55 166 29 90 56 165 60 167 10 7 71 -47 71 -62 0 -7 -14 -59
-31 -115 -27 -89 -39 -132 -49 -172 -8 -34 2 -35 52 -7 168 93 240 132 246
132 4 0 23 -12 41 -28 l33 -27 -54 -37 c-29 -20 -87 -55 -128 -78 -41 -22 -86
-49 -99 -59 -22 -17 -23 -19 -7 -43 8 -13 56 -55 106 -92 49 -38 90 -71 90
-75 0 -13 88 -61 102 -56 17 7 68 83 68 102 0 7 -18 26 -40 41 -54 37 -58 56
-22 100 42 53 59 52 108 -2 l42 -47 41 52 c22 28 41 59 41 68 0 8 -18 32 -40
52 -22 20 -40 44 -40 52 0 17 57 87 70 87 5 0 43 -28 85 -62 43 -35 116 -94
164 -131 47 -38 88 -72 91 -76 3 -4 41 -35 85 -71 44 -35 103 -86 132 -114
l52 -51 -66 -60 c-36 -33 -96 -85 -133 -115 -37 -30 -125 -102 -195 -160 -70
-58 -150 -123 -177 -144 l-49 -39 -62 66 c-34 37 -70 67 -80 67 -23 0 -96 -67
-103 -96 -4 -17 6 -40 41 -89 26 -36 45 -68 42 -71 -7 -8 -78 30 -151 80 -34
23 -95 53 -136 67 -68 22 -91 24 -255 24 -180 0 -180 0 -260 -32 -104 -42
-226 -138 -298 -235 -152 -205 -180 -488 -72 -755 l33 -82 -49 -44 c-39 -36
-49 -51 -49 -76 0 -53 37 -103 99 -135 26 -14 30 -12 78 25 29 21 57 39 64 39
18 0 129 -70 129 -81 0 -6 5 -7 10 -4 6 3 10 2 10 -3 0 -5 19 -17 43 -28 23
-10 44 -21 47 -24 3 -3 10 -6 15 -7 6 -1 45 -8 88 -17 104 -22 284 -23 364 -2
220 57 394 212 475 424 47 122 48 130 48 267 -1 153 -6 182 -55 298 -51 123
-44 137 31 59 65 -68 87 -75 135 -41 27 19 59 66 59 87 0 6 -16 27 -35 48 -19
22 -40 52 -46 68 -12 27 -10 30 17 50 16 11 52 40 79 63 28 24 85 70 128 103
42 34 85 69 95 79 9 9 58 48 107 86 50 38 95 74 101 82 18 21 24 -81 24 -418
l0 -308 -92 -3 -93 -3 0 -84 0 -83 45 -5 c25 -2 52 -4 60 -4 33 -1 70 -11 65
-19 -3 -4 -43 -22 -90 -39 -186 -67 -279 -131 -398 -272 -39 -46 -95 -146
-103 -184 -39 -168 -44 -291 -19 -410 44 -205 197 -392 397 -484 120 -55 115
-53 173 -65 22 -4 43 -13 47 -19 4 -7 8 -39 8 -72 0 -69 4 -77 45 -98 48 -24
87 -24 127 1 43 26 48 38 48 102 0 30 6 54 15 63 8 9 59 29 112 46 90 28 204
85 228 114 6 7 36 34 68 61 73 61 161 190 187 274 48 155 48 334 -1 483 -28
85 -116 215 -198 290 -68 63 -172 122 -271 154 -30 10 -73 27 -95 38 -35 18
-37 21 -19 27 11 5 47 9 80 11 76 5 94 22 94 95 0 68 -17 80 -121 89 l-76 7
-1 342 c-1 187 2 349 6 360 8 17 10 17 43 -10 19 -17 52 -43 74 -58 22 -16 45
-34 50 -41 6 -6 46 -40 90 -74 106 -84 149 -119 177 -143 13 -11 47 -38 76
-60 l53 -40 -25 -34 c-73 -97 -74 -98 -65 -128 11 -38 32 -60 81 -82 l40 -18
27 31 c14 16 39 47 54 67 15 20 32 36 37 36 15 0 12 -37 -7 -78 -9 -20 -17
-39 -17 -42 -1 -3 -6 -12 -11 -20 -5 -8 -19 -53 -30 -100 -26 -99 -26 -247 -2
-355 21 -88 120 -256 194 -326 77 -74 94 -89 102 -89 4 0 16 -9 28 -19 21 -20
121 -65 173 -78 93 -23 293 -20 392 6 93 24 139 47 240 117 42 30 79 54 82 54
4 0 29 -18 57 -40 28 -22 62 -40 75 -40 36 0 111 79 120 126 7 37 5 40 -45 84
-28 25 -51 49 -51 54 0 5 17 50 37 100 l38 91 3 200 4 200 -46 95 c-61 126
-121 205 -206 274 -144 117 -308 167 -495 152 -163 -13 -259 -49 -396 -146
-106 -76 -114 -68 -39 38 28 39 50 75 50 80 0 13 -97 102 -110 102 -23 0 -48
-21 -89 -75 -23 -30 -46 -55 -51 -55 -5 0 -44 28 -86 63 -43 34 -121 97 -173
139 -53 43 -132 105 -175 140 -44 34 -87 69 -96 77 -8 9 -37 34 -63 55 l-48
39 43 42 c24 23 75 66 113 95 39 30 85 67 103 84 30 29 97 81 291 233 l74 57
38 -43 c44 -49 42 -57 -25 -110 -20 -16 -37 -33 -38 -36 0 -10 76 -114 85
-115 4 0 22 13 39 29 53 49 74 57 98 36 11 -10 28 -33 39 -51 l20 -33 -27 -17
c-15 -10 -40 -30 -56 -45 l-30 -27 30 -38 c70 -88 56 -83 112 -39 174 140 269
221 266 230 -3 6 -46 31 -97 57 -50 26 -117 63 -147 83 -30 19 -58 35 -62 35
-17 0 -6 16 28 44 l36 28 92 -47 c50 -26 105 -57 121 -69 27 -20 79 -46 91
-46 6 0 -2 32 -48 195 l-40 140 33 29 33 29 14 -34 c8 -19 20 -47 28 -64 23
-50 63 -188 58 -197 -3 -4 0 -8 5 -8 6 0 11 -7 11 -15 0 -27 30 -16 103 38 81
61 217 185 217 200 0 20 -63 87 -82 87 -11 0 -37 -13 -58 -30 -21 -16 -44 -30
-52 -30 -8 0 -31 17 -52 39 l-38 38 56 49 c31 26 56 53 56 58 -1 6 -20 33 -44
60 l-44 50 -54 -37 c-29 -20 -59 -37 -65 -37 -13 0 -63 61 -63 76 1 14 40 55
100 103 91 73 140 124 140 144 0 23 -52 99 -86 126 -33 26 -58 27 -81 3 -10
-10 -54 -46 -98 -80 -44 -34 -129 -103 -190 -152 -60 -50 -144 -118 -185 -151
-41 -33 -97 -79 -124 -102 -27 -23 -70 -58 -96 -78 -27 -20 -72 -57 -102 -82
-60 -52 -142 -118 -303 -244 -60 -48 -114 -92 -120 -98 -22 -27 -126 -97 -133
-91 -4 4 -8 411 -10 905 l-3 897 -32 12 c-40 14 -121 14 -159 0z m-1398 -2745
c52 -15 128 -75 131 -103 1 -6 2 -14 3 -19 0 -5 4 -13 9 -17 12 -13 8 -103 -7
-139 -30 -70 -115 -125 -193 -125 -84 1 -152 56 -200 163 -9 20 -21 37 -27 37
-17 0 -116 -103 -116 -120 0 -30 50 -121 82 -151 78 -72 170 -119 234 -119 19
0 33 -4 30 -8 -7 -11 -9 -132 -2 -160 8 -35 73 -134 102 -157 15 -11 35 -28
45 -37 11 -10 29 -18 41 -18 28 0 148 78 148 96 0 8 -21 25 -47 38 -57 28 -77
49 -98 99 -36 87 -7 196 66 244 35 23 55 29 120 32 76 3 77 3 118 -34 22 -20
52 -62 67 -92 25 -55 38 -139 22 -149 -4 -3 -8 -14 -8 -26 0 -26 -54 -125 -88
-161 -48 -52 -146 -121 -207 -147 -55 -23 -72 -25 -206 -25 l-146 0 -84 42
c-46 24 -95 52 -109 63 l-25 21 53 47 c28 26 52 53 52 60 0 20 -46 87 -80 115
-41 35 -71 34 -122 -3 -22 -16 -44 -30 -49 -30 -10 0 -36 71 -50 135 -13 63
-13 199 1 261 40 178 205 364 344 388 16 3 30 7 33 10 11 10 113 4 163 -11z
m3165 2 c79 -21 127 -54 211 -146 50 -56 78 -98 103 -154 l33 -77 -4 -157 c-3
-136 -7 -163 -27 -208 -13 -29 -25 -53 -27 -53 -2 0 -24 16 -50 35 -63 48 -91
46 -142 -9 -67 -72 -66 -101 6 -171 17 -17 28 -35 24 -41 -13 -19 -105 -75
-156 -96 -38 -15 -82 -22 -172 -26 -154 -6 -225 13 -331 88 -85 60 -129 108
-169 187 -24 49 -29 70 -29 134 0 71 2 79 38 133 51 77 86 97 162 95 33 -1 76
-8 95 -16 42 -17 89 -63 93 -91 2 -12 6 -25 10 -28 14 -15 6 -120 -12 -161
-18 -38 -36 -54 -115 -98 -29 -16 -24 -27 30 -68 48 -36 104 -60 114 -48 3 4
28 25 55 48 28 22 66 67 85 99 33 55 35 63 35 151 l0 93 45 0 c54 0 133 38
197 94 46 40 93 122 93 162 0 27 -105 126 -129 122 -9 -2 -18 -17 -21 -38 -9
-49 -24 -73 -72 -114 -79 -68 -149 -68 -240 -1 -55 40 -88 98 -88 153 0 81 88
199 153 206 15 1 29 5 32 8 12 11 114 7 170 -7z m-1902 -898 c84 -38 127 -104
127 -197 0 -49 -42 -133 -79 -159 -39 -28 -117 -37 -195 -22 -73 14 -76 11
-76 -86 l0 -72 39 -11 c156 -42 261 -23 359 65 l49 44 33 -39 c33 -38 89 -69
140 -77 14 -2 26 -7 27 -11 4 -10 118 -4 163 8 55 15 61 28 58 112 -3 67 -5
73 -23 69 -11 -2 -60 -4 -110 -5 -80 -1 -94 2 -124 23 -45 32 -73 98 -73 172
0 82 33 138 104 173 96 48 199 26 284 -60 30 -30 55 -61 55 -69 2 -24 4 -29
13 -44 5 -7 11 -69 13 -136 8 -198 -26 -292 -149 -417 -56 -57 -93 -85 -158
-117 -102 -51 -144 -53 -148 -6 -8 101 -32 125 -120 125 -43 0 -105 -27 -103
-44 4 -30 -1 -94 -9 -106 -12 -19 -73 -4 -165 42 -78 37 -180 138 -219 217
-102 200 -80 467 46 575 23 20 45 33 49 30 5 -3 9 -1 9 4 0 8 42 22 105 36 11
2 21 4 22 5 1 0 26 -10 56 -22z"/>
</g>
</svg>
